<svg width="171" height="40" viewBox="0 0 171 40" fill="none" xmlns="http://www.w3.org/2000/svg">
<path d="M20 40C8.9543 40 0 31.0457 0 20C0 8.95431 8.9543 0 20 0C31.0457 0 40 8.95431 40 20C40 31.0457 31.0457 40 20 40Z" fill="#FD5F07"/>
<path d="M25.3682 26.274V30.2L35 20.3851L25.3682 10.5703V14.4962L31.1473 20.3851L25.3682 26.274Z" fill="white"/>
<path d="M14.6319 26.274V30.2L5 20.3851L14.6319 10.5703V14.4962L8.85274 20.3851L14.6319 26.274Z" fill="white"/>
<path d="M15.218 34.3164L17.1174 34.5867L24.7816 6.92495L22.8822 6.65463L15.218 34.3164Z" fill="white"/>
<path d="M70.6152 21.1663L73.418 22.055C72.9883 23.6175 72.2721 24.7796 71.2695 25.5413C70.2734 26.2965 69.0072 26.6741 67.4707 26.6741C65.5697 26.6741 64.0072 26.0264 62.7832 24.7308C61.5592 23.4287 60.9473 21.6514 60.9473 19.3988C60.9473 17.0159 61.5625 15.167 62.793 13.8519C64.0234 12.5303 65.6413 11.8695 67.6465 11.8695C69.3978 11.8695 70.8203 12.387 71.9141 13.4222C72.5651 14.0342 73.0534 14.9131 73.3789 16.0589L70.5176 16.7425C70.3483 16.0003 69.9935 15.4144 69.4531 14.9847C68.9193 14.555 68.2682 14.3402 67.5 14.3402C66.4388 14.3402 65.5762 14.721 64.9121 15.4827C64.2546 16.2445 63.9258 17.4782 63.9258 19.1839C63.9258 20.9938 64.2513 22.2829 64.9023 23.0511C65.5534 23.8193 66.3997 24.2034 67.4414 24.2034C68.2096 24.2034 68.8704 23.9593 69.4238 23.471C69.9772 22.9827 70.3743 22.2145 70.6152 21.1663ZM75.2539 21.098C75.2539 20.1865 75.4785 19.3043 75.9277 18.4515C76.377 17.5986 77.0117 16.9476 77.832 16.4984C78.6589 16.0491 79.5801 15.8245 80.5957 15.8245C82.1647 15.8245 83.4505 16.3356 84.4531 17.3577C85.4557 18.3734 85.957 19.6592 85.957 21.2152C85.957 22.7842 85.4492 24.0863 84.4336 25.1214C83.4245 26.1501 82.1517 26.6644 80.6152 26.6644C79.6647 26.6644 78.7565 26.4495 77.8906 26.0198C77.0312 25.5902 76.377 24.9619 75.9277 24.1351C75.4785 23.3017 75.2539 22.2894 75.2539 21.098ZM78.0664 21.2445C78.0664 22.2731 78.3105 23.0609 78.7988 23.6077C79.2871 24.1546 79.8893 24.428 80.6055 24.428C81.3216 24.428 81.9206 24.1546 82.4023 23.6077C82.8906 23.0609 83.1348 22.2666 83.1348 21.2249C83.1348 20.2093 82.8906 19.428 82.4023 18.8812C81.9206 18.3343 81.3216 18.0609 80.6055 18.0609C79.8893 18.0609 79.2871 18.3343 78.7988 18.8812C78.3105 19.428 78.0664 20.2158 78.0664 21.2445ZM87.9102 16.0589H90.4395V17.4749C91.3444 16.3747 92.4219 15.8245 93.6719 15.8245C94.3359 15.8245 94.9121 15.9613 95.4004 16.2347C95.8887 16.5081 96.2891 16.9215 96.6016 17.4749C97.0573 16.9215 97.5488 16.5081 98.0762 16.2347C98.6035 15.9613 99.1667 15.8245 99.7656 15.8245C100.527 15.8245 101.172 15.9808 101.699 16.2933C102.227 16.5993 102.62 17.0517 102.881 17.6507C103.07 18.0934 103.164 18.8096 103.164 19.7991V26.43H100.42V20.5023C100.42 19.4736 100.326 18.8096 100.137 18.5101C99.8828 18.1195 99.4922 17.9241 98.9648 17.9241C98.5807 17.9241 98.2194 18.0413 97.8809 18.2757C97.5423 18.5101 97.2982 18.8551 97.1484 19.3109C96.9987 19.7601 96.9238 20.473 96.9238 21.4495V26.43H94.1797V20.7464C94.1797 19.7373 94.1309 19.0863 94.0332 18.7933C93.9355 18.5003 93.7826 18.2822 93.5742 18.139C93.3724 17.9958 93.0957 17.9241 92.7441 17.9241C92.321 17.9241 91.9401 18.0381 91.6016 18.2659C91.263 18.4938 91.0189 18.8226 90.8691 19.2523C90.7259 19.682 90.6543 20.3948 90.6543 21.3909V26.43H87.9102V16.0589ZM105.703 16.0589H108.232V17.4749C109.137 16.3747 110.215 15.8245 111.465 15.8245C112.129 15.8245 112.705 15.9613 113.193 16.2347C113.682 16.5081 114.082 16.9215 114.395 17.4749C114.85 16.9215 115.342 16.5081 115.869 16.2347C116.396 15.9613 116.96 15.8245 117.559 15.8245C118.32 15.8245 118.965 15.9808 119.492 16.2933C120.02 16.5993 120.413 17.0517 120.674 17.6507C120.863 18.0934 120.957 18.8096 120.957 19.7991V26.43H118.213V20.5023C118.213 19.4736 118.118 18.8096 117.93 18.5101C117.676 18.1195 117.285 17.9241 116.758 17.9241C116.374 17.9241 116.012 18.0413 115.674 18.2757C115.335 18.5101 115.091 18.8551 114.941 19.3109C114.792 19.7601 114.717 20.473 114.717 21.4495V26.43H111.973V20.7464C111.973 19.7373 111.924 19.0863 111.826 18.7933C111.729 18.5003 111.576 18.2822 111.367 18.139C111.165 17.9958 110.889 17.9241 110.537 17.9241C110.114 17.9241 109.733 18.0381 109.395 18.2659C109.056 18.4938 108.812 18.8226 108.662 19.2523C108.519 19.682 108.447 20.3948 108.447 21.3909V26.43H105.703V16.0589ZM130.527 26.43V24.8773C130.15 25.4307 129.652 25.8668 129.033 26.1859C128.421 26.5049 127.773 26.6644 127.09 26.6644C126.393 26.6644 125.768 26.5114 125.215 26.2054C124.661 25.8994 124.261 25.4697 124.014 24.9163C123.766 24.3629 123.643 23.598 123.643 22.6214V16.0589H126.387V20.8245C126.387 22.2829 126.436 23.178 126.533 23.5101C126.637 23.8356 126.823 24.096 127.09 24.2913C127.357 24.4801 127.695 24.5745 128.105 24.5745C128.574 24.5745 128.994 24.4476 129.365 24.1937C129.736 23.9333 129.99 23.6142 130.127 23.2366C130.264 22.8525 130.332 21.9183 130.332 20.4339V16.0589H133.076V26.43H130.527ZM145.361 26.43H142.617V21.137C142.617 20.0172 142.559 19.2946 142.441 18.9691C142.324 18.637 142.132 18.3799 141.865 18.1976C141.605 18.0153 141.289 17.9241 140.918 17.9241C140.443 17.9241 140.016 18.0543 139.639 18.3148C139.261 18.5752 139.001 18.9202 138.857 19.3499C138.721 19.7796 138.652 20.5739 138.652 21.7327V26.43H135.908V16.0589H138.457V17.5823C139.362 16.4105 140.501 15.8245 141.875 15.8245C142.48 15.8245 143.034 15.9352 143.535 16.1566C144.036 16.3714 144.414 16.6481 144.668 16.9866C144.928 17.3252 145.107 17.7093 145.205 18.139C145.309 18.5687 145.361 19.1839 145.361 19.9847V26.43ZM148.154 14.6527V12.1136H150.898V14.6527H148.154ZM148.154 26.43V16.0589H150.898V26.43H148.154ZM158.477 16.0589V18.2464H156.602V22.4261C156.602 23.2724 156.618 23.7672 156.65 23.9105C156.689 24.0472 156.771 24.1611 156.895 24.2523C157.025 24.3434 157.181 24.389 157.363 24.389C157.617 24.389 157.985 24.3011 158.467 24.1253L158.701 26.2542C158.063 26.5277 157.34 26.6644 156.533 26.6644C156.038 26.6644 155.592 26.583 155.195 26.4202C154.798 26.251 154.505 26.0361 154.316 25.7757C154.134 25.5088 154.007 25.1507 153.936 24.7015C153.877 24.3825 153.848 23.7379 153.848 22.7679V18.2464H152.588V16.0589H153.848V13.9984L156.602 12.3968V16.0589H158.477ZM159.082 16.0589H162.002L164.482 23.4222L166.904 16.0589H169.746L166.084 26.0394L165.43 27.846C165.189 28.4515 164.958 28.9137 164.736 29.2327C164.521 29.5517 164.271 29.8089 163.984 30.0042C163.704 30.206 163.356 30.3623 162.939 30.473C162.529 30.5836 162.064 30.639 161.543 30.639C161.016 30.639 160.498 30.5836 159.99 30.473L159.746 28.3245C160.176 28.4092 160.563 28.4515 160.908 28.4515C161.546 28.4515 162.018 28.2627 162.324 27.8851C162.63 27.514 162.865 27.0387 163.027 26.4593L159.082 16.0589Z" fill="#231E28"/>
</svg>
