<svg width="20" height="17" viewBox="0 0 20 17" fill="none" xmlns="http://www.w3.org/2000/svg">
<path d="M19.2309 3.07692H6.154C5.94998 3.07692 5.75433 2.99588 5.61007 2.85162C5.46581 2.70736 5.38477 2.5117 5.38477 2.30769C5.38477 2.10368 5.46581 1.90802 5.61007 1.76376C5.75433 1.6195 5.94998 1.53846 6.154 1.53846H19.2309C19.4349 1.53846 19.6306 1.6195 19.7748 1.76376C19.9191 1.90802 20.0002 2.10368 20.0002 2.30769C20.0002 2.5117 19.9191 2.70736 19.7748 2.85162C19.6306 2.99588 19.4349 3.07692 19.2309 3.07692Z" fill="#4D4D4D"/>
<path d="M3.07692 3.07692H0.769231C0.565218 3.07692 0.369561 2.99588 0.225302 2.85162C0.0810437 2.70736 0 2.5117 0 2.30769C0 2.10368 0.0810437 1.90802 0.225302 1.76376C0.369561 1.6195 0.565218 1.53846 0.769231 1.53846H3.07692C3.28094 1.53846 3.47659 1.6195 3.62085 1.76376C3.76511 1.90802 3.84615 2.10368 3.84615 2.30769C3.84615 2.5117 3.76511 2.70736 3.62085 2.85162C3.47659 2.99588 3.28094 3.07692 3.07692 3.07692Z" fill="#4D4D4D"/>
<path d="M13.8462 9.23077H0.769231C0.565218 9.23077 0.369561 9.14972 0.225302 9.00547C0.0810437 8.86121 0 8.66555 0 8.46154C0 8.25752 0.0810437 8.06187 0.225302 7.91761C0.369561 7.77335 0.565218 7.69231 0.769231 7.69231H13.8462C14.0502 7.69231 14.2458 7.77335 14.3901 7.91761C14.5343 8.06187 14.6154 8.25752 14.6154 8.46154C14.6154 8.66555 14.5343 8.86121 14.3901 9.00547C14.2458 9.14972 14.0502 9.23077 13.8462 9.23077Z" fill="#4D4D4D"/>
<path d="M6.15385 15.3846H0.769231C0.565218 15.3846 0.369561 15.3036 0.225302 15.1593C0.0810437 15.0151 0 14.8194 0 14.6154C0 14.4114 0.0810437 14.2157 0.225302 14.0715C0.369561 13.9272 0.565218 13.8462 0.769231 13.8462H6.15385C6.35786 13.8462 6.55352 13.9272 6.69777 14.0715C6.84203 14.2157 6.92308 14.4114 6.92308 14.6154C6.92308 14.8194 6.84203 15.0151 6.69777 15.1593C6.55352 15.3036 6.35786 15.3846 6.15385 15.3846Z" fill="#4D4D4D"/>
<path d="M4.61531 4.61539C4.15889 4.61539 3.71272 4.48004 3.33323 4.22647C2.95373 3.9729 2.65794 3.61248 2.48328 3.19081C2.30862 2.76913 2.26292 2.30513 2.35196 1.85748C2.441 1.40984 2.66079 0.998645 2.98353 0.675908C3.30626 0.353172 3.71745 0.133386 4.1651 0.0443427C4.61275 -0.0447001 5.07675 0.000999891 5.49843 0.175664C5.9201 0.350327 6.28051 0.64611 6.53409 1.02561C6.78766 1.40511 6.923 1.85127 6.923 2.30769C6.923 2.91973 6.67987 3.5067 6.2471 3.93948C5.81432 4.37225 5.22735 4.61539 4.61531 4.61539ZM4.61531 1.53846C4.46317 1.53846 4.31445 1.58358 4.18795 1.6681C4.06145 1.75263 3.96286 1.87276 3.90463 2.01332C3.84641 2.15388 3.83118 2.30855 3.86086 2.45776C3.89054 2.60698 3.9638 2.74404 4.07138 2.85162C4.17896 2.9592 4.31602 3.03246 4.46524 3.06214C4.61446 3.09182 4.76912 3.07659 4.90968 3.01837C5.05024 2.96015 5.17038 2.86155 5.2549 2.73506C5.33943 2.60856 5.38454 2.45983 5.38454 2.30769C5.38454 2.10368 5.3035 1.90802 5.15924 1.76377C5.01498 1.61951 4.81932 1.53846 4.61531 1.53846Z" fill="#4D4D4D"/>
<path d="M15.3848 10.7692C14.9284 10.7692 14.4823 10.6339 14.1028 10.3803C13.7233 10.1267 13.4275 9.76632 13.2528 9.34465C13.0781 8.92297 13.0324 8.45897 13.1215 8.01132C13.2105 7.56368 13.4303 7.15248 13.7531 6.82975C14.0758 6.50701 14.487 6.28722 14.9346 6.19818C15.3823 6.10914 15.8463 6.15484 16.268 6.3295C16.6896 6.50417 17.05 6.79995 17.3036 7.17945C17.5572 7.55895 17.6925 8.00511 17.6925 8.46153C17.6925 9.07357 17.4494 9.66054 17.0166 10.0933C16.5839 10.5261 15.9969 10.7692 15.3848 10.7692ZM15.3848 7.6923C15.2327 7.6923 15.084 7.73742 14.9575 7.82194C14.831 7.90646 14.7324 8.0266 14.6742 8.16716C14.6159 8.30772 14.6007 8.46239 14.6304 8.6116C14.6601 8.76082 14.7333 8.89788 14.8409 9.00546C14.9485 9.11304 15.0856 9.1863 15.2348 9.21598C15.384 9.24566 15.5387 9.23043 15.6792 9.17221C15.8198 9.11399 15.9399 9.01539 16.0244 8.88889C16.109 8.7624 16.1541 8.61367 16.1541 8.46153C16.1541 8.25752 16.073 8.06186 15.9288 7.9176C15.7845 7.77335 15.5889 7.6923 15.3848 7.6923Z" fill="#4D4D4D"/>
<path d="M7.69246 16.9231C7.23604 16.9231 6.78987 16.7877 6.41037 16.5342C6.03088 16.2806 5.73509 15.9202 5.56043 15.4985C5.38577 15.0768 5.34007 14.6128 5.42911 14.1652C5.51815 13.7175 5.73794 13.3063 6.06067 12.9836C6.38341 12.6609 6.7946 12.4411 7.24225 12.352C7.6899 12.263 8.1539 12.3087 8.57557 12.4834C8.99725 12.658 9.35766 12.9538 9.61123 13.3333C9.86481 13.7128 10.0002 14.159 10.0002 14.6154C10.0002 15.2274 9.75702 15.8144 9.32424 16.2472C8.89147 16.6799 8.3045 16.9231 7.69246 16.9231ZM7.69246 13.8462C7.54032 13.8462 7.3916 13.8913 7.2651 13.9758C7.1386 14.0603 7.04 14.1805 6.98178 14.321C6.92356 14.4616 6.90833 14.6162 6.93801 14.7655C6.96769 14.9147 7.04095 15.0517 7.14853 15.1593C7.25611 15.2669 7.39317 15.3402 7.54239 15.3698C7.69161 15.3995 7.84627 15.3843 7.98683 15.3261C8.12739 15.2678 8.24753 15.1692 8.33205 15.0427C8.41658 14.9162 8.46169 14.7675 8.46169 14.6154C8.46169 14.4114 8.38065 14.2157 8.23639 14.0715C8.09213 13.9272 7.89647 13.8462 7.69246 13.8462Z" fill="#4D4D4D"/>
<path d="M19.2307 9.23077H16.923C16.719 9.23077 16.5234 9.14972 16.3791 9.00547C16.2349 8.86121 16.1538 8.66555 16.1538 8.46154C16.1538 8.25752 16.2349 8.06187 16.3791 7.91761C16.5234 7.77335 16.719 7.69231 16.923 7.69231H19.2307C19.4347 7.69231 19.6304 7.77335 19.7747 7.91761C19.9189 8.06187 20 8.25752 20 8.46154C20 8.66555 19.9189 8.86121 19.7747 9.00547C19.6304 9.14972 19.4347 9.23077 19.2307 9.23077Z" fill="#4D4D4D"/>
<path d="M19.2307 15.3846H9.23066C9.02664 15.3846 8.83099 15.3036 8.68673 15.1593C8.54247 15.0151 8.46143 14.8194 8.46143 14.6154C8.46143 14.4114 8.54247 14.2157 8.68673 14.0715C8.83099 13.9272 9.02664 13.8462 9.23066 13.8462H19.2307C19.4347 13.8462 19.6303 13.9272 19.7746 14.0715C19.9188 14.2157 19.9999 14.4114 19.9999 14.6154C19.9999 14.8194 19.9188 15.0151 19.7746 15.1593C19.6303 15.3036 19.4347 15.3846 19.2307 15.3846Z" fill="#4D4D4D"/>
</svg>
