<svg width="18" height="18" viewBox="0 0 18 18" fill="none" xmlns="http://www.w3.org/2000/svg">
<path fill-rule="evenodd" clip-rule="evenodd" d="M6 1H16C16.5523 1 17 1.44772 17 2V16C17 16.5523 16.5523 17 16 17H6C5.44772 17 5 16.5523 5 16V13H4V16C4 17.1046 4.89543 18 6 18H16C17.1046 18 18 17.1046 18 16V2C18 0.895431 17.1046 0 16 0H6C4.89543 0 4 0.89543 4 2V5H5V2C5 1.44772 5.44772 1 6 1Z" fill="#4D4D4D"/>
<path d="M1 8.5C0.723858 8.5 0.5 8.72386 0.5 9C0.5 9.27614 0.723858 9.5 1 9.5V8.5ZM13.3536 9.35355C13.5488 9.15829 13.5488 8.84171 13.3536 8.64645L10.1716 5.46447C9.97631 5.2692 9.65973 5.2692 9.46447 5.46447C9.2692 5.65973 9.2692 5.97631 9.46447 6.17157L12.2929 9L9.46447 11.8284C9.2692 12.0237 9.2692 12.3403 9.46447 12.5355C9.65973 12.7308 9.97631 12.7308 10.1716 12.5355L13.3536 9.35355ZM1 9.5H13V8.5H1V9.5Z" fill="#4D4D4D"/>
</svg>
