<svg width="35" height="35" viewBox="0 0 35 35" fill="none" xmlns="http://www.w3.org/2000/svg">
<path d="M19.4687 30.9786L16.9101 27.7786L16.819 22.1429C16.822 22.1048 16.822 22.0666 16.819 22.0286C16.0129 17.5571 13.4614 15 9.80933 15C5.95401 15 2.85573 17.8571 2.09868 22.0143C2.09489 22.0571 2.09489 22.1001 2.09868 22.1429L2.00756 27.8571L0.0939121 31.0571C0.0323893 31.1657 0 31.2889 0 31.4143C0 31.5397 0.0323893 31.6628 0.0939121 31.7714C0.153284 31.882 0.240332 31.9747 0.346213 32.0399C0.452093 32.1052 0.573032 32.1407 0.696745 32.1429H7.00546C7.00546 32.9006 7.30087 33.6273 7.82669 34.1632C8.35252 34.699 9.0657 35 9.80933 35C10.553 35 11.2661 34.699 11.792 34.1632C12.3178 33.6273 12.6132 32.9006 12.6132 32.1429H18.9219C19.054 32.1425 19.1834 32.1041 19.295 32.032C19.4066 31.96 19.496 31.8573 19.5528 31.7357C19.6103 31.6143 19.633 31.4787 19.6181 31.3448C19.6032 31.2108 19.5514 31.0838 19.4687 30.9786ZM9.80933 33.5714C9.43751 33.5714 9.08093 33.4209 8.81801 33.153C8.5551 32.8851 8.40739 32.5217 8.40739 32.1429H11.2113C11.2113 32.5217 11.0636 32.8851 10.8006 33.153C10.5377 33.4209 10.1811 33.5714 9.80933 33.5714ZM1.93746 30.7143L3.33939 28.4C3.4024 28.2918 3.43625 28.1686 3.43753 28.0429L3.50062 22.2143C4.1385 18.75 6.66899 16.4286 9.80933 16.4286C13.7558 16.4286 15.0175 20 15.4171 22.2143L15.5152 28.0429C15.5161 28.204 15.5705 28.36 15.6694 28.4857L17.4499 30.7143H1.93746Z" fill="#4D4D4D"/>
<rect x="11" width="24" height="16" rx="8" fill="#FD5F07"/>
<path d="M15.4541 9.34473L16.7822 9.19824C16.8148 9.46842 16.8994 9.66862 17.0361 9.79883C17.1729 9.92904 17.3535 9.99414 17.5781 9.99414C17.8613 9.99414 18.1022 9.86393 18.3008 9.60352C18.4993 9.3431 18.6263 8.80273 18.6816 7.98242C18.3366 8.38281 17.9053 8.58301 17.3877 8.58301C16.8245 8.58301 16.3379 8.36654 15.9277 7.93359C15.5208 7.4974 15.3174 6.93099 15.3174 6.23438C15.3174 5.50846 15.5322 4.92415 15.9619 4.48145C16.3949 4.03548 16.945 3.8125 17.6123 3.8125C18.3382 3.8125 18.9339 4.09408 19.3994 4.65723C19.8649 5.21712 20.0977 6.13997 20.0977 7.42578C20.0977 8.73438 19.8551 9.67839 19.3701 10.2578C18.8851 10.8372 18.2536 11.127 17.4756 11.127C16.9157 11.127 16.4632 10.9788 16.1182 10.6826C15.7731 10.3831 15.5518 9.93717 15.4541 9.34473ZM18.5596 6.34668C18.5596 5.90397 18.457 5.56055 18.252 5.31641C18.0501 5.07227 17.8158 4.9502 17.5488 4.9502C17.2949 4.9502 17.0833 5.05111 16.9141 5.25293C16.748 5.4515 16.665 5.77865 16.665 6.23438C16.665 6.69661 16.7562 7.03678 16.9385 7.25488C17.1208 7.46973 17.3486 7.57715 17.6221 7.57715C17.8857 7.57715 18.1071 7.47298 18.2861 7.26465C18.4684 7.05632 18.5596 6.75033 18.5596 6.34668ZM21.0205 9.34473L22.3486 9.19824C22.3812 9.46842 22.4658 9.66862 22.6025 9.79883C22.7393 9.92904 22.9199 9.99414 23.1445 9.99414C23.4277 9.99414 23.6686 9.86393 23.8672 9.60352C24.0658 9.3431 24.1927 8.80273 24.248 7.98242C23.903 8.38281 23.4717 8.58301 22.9541 8.58301C22.391 8.58301 21.9043 8.36654 21.4941 7.93359C21.0872 7.4974 20.8838 6.93099 20.8838 6.23438C20.8838 5.50846 21.0986 4.92415 21.5283 4.48145C21.9613 4.03548 22.5114 3.8125 23.1787 3.8125C23.9046 3.8125 24.5003 4.09408 24.9658 4.65723C25.4313 5.21712 25.6641 6.13997 25.6641 7.42578C25.6641 8.73438 25.4215 9.67839 24.9365 10.2578C24.4515 10.8372 23.82 11.127 23.042 11.127C22.4821 11.127 22.0296 10.9788 21.6846 10.6826C21.3395 10.3831 21.1182 9.93717 21.0205 9.34473ZM24.126 6.34668C24.126 5.90397 24.0234 5.56055 23.8184 5.31641C23.6165 5.07227 23.3822 4.9502 23.1152 4.9502C22.8613 4.9502 22.6497 5.05111 22.4805 5.25293C22.3145 5.4515 22.2314 5.77865 22.2314 6.23438C22.2314 6.69661 22.3226 7.03678 22.5049 7.25488C22.6872 7.46973 22.915 7.57715 23.1885 7.57715C23.4521 7.57715 23.6735 7.47298 23.8525 7.26465C24.0348 7.05632 24.126 6.75033 24.126 6.34668ZM28.4229 9.96973V8.10938H26.5479V6.8252H28.4229V4.96484H29.6729V6.8252H31.5527V8.10938H29.6729V9.96973H28.4229Z" fill="white"/>
</svg>
