<svg width="143" height="32" viewBox="0 0 143 32" fill="none" xmlns="http://www.w3.org/2000/svg">
<path d="M83.4796 24.356H86.9345V12.9694H83.4796V24.356ZM85.2071 11.6334C84.0945 11.6334 83.1948 10.7334 83.1948 9.67338C83.1948 8.61338 84.0945 7.71338 85.2071 7.71338C86.3196 7.71338 87.2193 8.61338 87.2193 9.67338C87.2193 10.7334 86.3196 11.6334 85.2071 11.6334Z" fill="#231E28"/>
<path fill-rule="evenodd" clip-rule="evenodd" d="M50.311 13.4306C50.311 10.1106 47.8263 8.22131 44.229 8.22131H38.5942V24.3573H42.1449V18.64H44.2277C47.8263 18.64 50.311 16.7266 50.311 13.4306ZM44.2982 15.5746H42.1449V11.3333H44.2982C45.7196 11.3333 46.7363 12.1173 46.7363 13.4533C46.7363 14.7906 45.7196 15.5733 44.2982 15.5733V15.5746ZM56.9159 24.656C59.4711 24.656 61.3649 23.504 62.3364 21.6373L59.4246 20.5066C58.8789 21.36 58.1935 21.8906 56.9159 21.8906C55.4706 21.8906 54.217 20.9226 54.0985 19.584H62.6904C62.7264 19.3095 62.7424 19.0328 62.7384 18.756C62.7384 15.1826 60.3003 12.6706 56.7735 12.6706C53.3173 12.6706 50.7142 15.2293 50.7142 18.664C50.7142 22.1906 53.2694 24.656 56.9159 24.656ZM56.7496 15.2986C58.147 15.2986 59.2116 16.1733 59.3527 17.396H54.1225C54.2649 16.312 55.3775 15.2986 56.7496 15.2986Z" fill="#231E28"/>
<path d="M71.7787 16.2427C71.5884 16.1507 71.257 16.1054 70.9017 16.1054C68.9853 16.1054 67.8487 17.488 67.8487 19.724V24.3574H64.4165V12.9707H67.8248V14.8374C68.441 13.5227 69.672 12.7174 71.1865 12.7174C71.4473 12.7174 71.7069 12.7627 71.7787 12.7854V16.2427ZM77.0209 17.0267C76.3821 16.8654 76.0507 16.5654 76.0507 16.1507C76.0507 15.6894 76.5005 15.3667 77.1393 15.3667C77.85 15.3667 78.6299 15.92 78.9866 16.7734L81.8026 15.32C81.0693 13.7307 79.1755 12.6707 77.1633 12.6707C74.4883 12.6707 72.6424 14.1907 72.6424 16.3587C72.6424 18.156 73.779 19.3547 75.9802 19.8614L77.3523 20.184C78.0629 20.3454 78.417 20.6454 78.417 21.0374C78.417 21.5907 77.9205 21.9134 77.1873 21.9134C76.3116 21.9134 75.4359 21.3134 75.0087 20.3694L72.2166 21.8667C72.9978 23.6187 74.8436 24.6547 77.1633 24.6547C79.8849 24.6547 81.8745 23.0414 81.8745 20.76C81.8745 19.1467 80.69 17.9467 78.4888 17.3947L77.0209 17.0254V17.0267ZM93.1334 17.0267C92.4946 16.8654 92.1632 16.5654 92.1632 16.1507C92.1632 15.6894 92.613 15.3667 93.2518 15.3667C93.9625 15.3667 94.7424 15.92 95.099 16.7734L97.9151 15.32C97.1818 13.7307 95.288 12.6707 93.2758 12.6707C90.6008 12.6707 88.7549 14.1907 88.7549 16.3587C88.7549 18.156 89.8915 19.3547 92.0927 19.8614L93.4648 20.184C94.1754 20.3454 94.5294 20.6454 94.5294 21.0374C94.5294 21.5907 94.033 21.9134 93.2997 21.9134C92.4241 21.9134 91.5484 21.3134 91.1225 20.3694L88.3277 21.868C89.1103 23.62 90.9561 24.656 93.2758 24.656C95.9974 24.656 97.987 23.0427 97.987 20.7614C97.987 19.148 96.8025 17.948 94.6013 17.396L93.1334 17.0267ZM103.731 9.62671V12.9694H106.691V15.736H103.731V19.908C103.731 21.1294 104.277 21.6147 105.412 21.6147C105.838 21.6147 106.311 21.4987 106.689 21.268V24.172C106.17 24.4254 105.388 24.6334 104.275 24.6334C101.813 24.6334 100.299 23.1587 100.299 20.6227V15.736H98.6417V12.9694H100.299V9.62804H103.732L103.731 9.62671Z" fill="#231E28"/>
<path fill-rule="evenodd" clip-rule="evenodd" d="M113.656 24.656C116.213 24.656 118.107 23.504 119.077 21.6373L116.165 20.5067C115.621 21.36 114.934 21.8907 113.656 21.8907C112.212 21.8907 110.957 20.9227 110.839 19.584H119.432C119.456 19.4467 119.479 19.1467 119.479 18.756C119.479 15.1827 117.041 12.6707 113.514 12.6707C110.059 12.6707 107.455 15.2293 107.455 18.664C107.455 22.1907 110.01 24.656 113.656 24.656ZM113.491 15.2987C114.887 15.2987 115.953 16.1733 116.094 17.396H110.864C111.005 16.312 112.118 15.2987 113.491 15.2987Z" fill="#231E28"/>
<path d="M124.613 24.3574H121.16V12.9707H124.615V14.4214C125.325 13.3147 126.508 12.6707 128.071 12.6707C130.746 12.6707 132.379 14.4441 132.379 17.3267V24.3574H128.924V18.1094C128.924 16.6121 128.165 15.7587 126.816 15.7587C125.49 15.7587 124.615 16.7267 124.615 18.3187V24.3574H124.613ZM138.494 12.9694V9.62805H135.062V12.9694H133.405V15.7361H135.062V20.6227C135.062 23.1587 136.577 24.6334 139.038 24.6334C140.151 24.6334 140.932 24.4254 141.452 24.1721V21.2681C141.074 21.4987 140.601 21.6147 140.175 21.6147C139.038 21.6147 138.494 21.1294 138.494 19.9081V15.7347H141.452V12.9707H138.494V12.9694Z" fill="#231E28"/>
<path fill-rule="evenodd" clip-rule="evenodd" d="M30.2954 5.31196C29.9502 4.27806 29.3915 3.32857 28.6558 2.52529C27.9236 1.72937 27.0357 1.09304 26.0473 0.655961C25.0683 0.224302 24.0105 0.00105636 22.9409 0.000367809C21.8713 -0.000320744 20.8132 0.221562 19.8336 0.651961C18.8639 1.08654 17.9926 1.71419 17.2726 2.49673C16.5526 3.27927 15.999 4.20035 15.6455 5.20396C15.4706 5.70422 15.3475 6.22116 15.2782 6.74663C15.205 7.26663 15.205 7.81596 15.213 8.30263L15.2409 11.3L15.2875 17.2946L15.3035 20.292C15.3061 20.792 15.3008 21.292 15.3075 21.7906C15.3114 22.0386 15.3208 22.2946 15.3181 22.5373C15.3208 22.7773 15.3048 23.0173 15.2995 23.2586C15.2715 23.7435 15.2083 24.2256 15.1105 24.7013C15.0076 25.1813 14.8514 25.6482 14.6447 26.0933C14.233 26.9968 13.6458 27.8091 12.9173 28.4826C11.4454 29.8133 9.43046 30.5386 7.45416 30.3706C6.46316 30.3034 5.49736 30.0281 4.61947 29.5626C3.74086 29.0938 2.96978 28.4462 2.35571 27.6613C2.04743 27.2712 1.77567 26.8534 1.54389 26.4133C1.30776 25.9748 1.11818 25.5127 0.978286 25.0346C0.690181 24.0874 0.612506 23.0885 0.750712 22.108C0.823909 21.6253 0.93703 21.148 1.09008 20.6906C1.24683 20.2379 1.44277 19.7998 1.67565 19.3813C1.90189 18.968 2.16939 18.584 2.46084 18.2346C2.74697 17.8786 3.06638 17.5586 3.41905 17.2853C4.79647 16.1586 6.62371 15.6746 8.48955 15.668C10.4233 15.6706 12.3556 15.7 14.2894 15.688L14.2747 13.6413C12.3503 13.6813 10.4246 13.8133 8.5002 13.9546C7.42379 14.0375 6.36774 14.2937 5.37272 14.7133C4.87636 14.9226 4.40015 15.177 3.95005 15.4733C3.05654 16.0496 2.28432 16.7957 1.67698 17.6693C1.37388 18.0987 1.11272 18.5564 0.897105 19.036C0.449606 19.9896 0.163135 21.011 0.049359 22.0586C-0.0571083 23.124 0.00943374 24.2146 0.258301 25.2746C0.516008 26.3514 0.968419 27.3718 1.59313 28.2853C2.24296 29.2353 3.07547 30.0457 4.04188 30.6693C5.04426 31.3051 6.16866 31.7229 7.34237 31.896C7.48876 31.9226 7.63515 31.936 7.78155 31.952C7.92794 31.968 8.07566 31.984 8.23004 31.988C8.38309 31.996 8.53613 32.0013 8.68785 31.9986C9.45497 31.9985 10.2183 31.8908 10.9556 31.6786C11.5479 31.5117 12.1224 31.287 12.6711 31.008C13.2207 30.728 13.7371 30.3813 14.2241 29.9946C15.4344 28.9899 16.3746 27.6978 16.959 26.236C17.0788 25.9453 17.1786 25.6453 17.2598 25.3426C17.4211 24.7373 17.535 24.1203 17.6005 23.4973C17.6244 23.1866 17.6564 22.8773 17.6657 22.568L17.6817 22.1653L17.7003 21.792L17.7722 20.292L18.0317 8.30263L18.0383 7.92796L18.041 7.83729L18.0437 7.77463L18.0503 7.64929C18.0836 7.15414 18.1867 6.66619 18.3564 6.19996C18.5906 5.58291 18.9402 5.01633 19.3865 4.53063C19.8339 4.04492 20.3761 3.65645 20.9795 3.38929C21.5847 3.12623 22.2375 2.99097 22.8972 2.99196C23.5627 2.98129 24.2228 3.10796 24.8363 3.36796C25.4485 3.62663 26.0167 4.01863 26.4852 4.51196C26.9496 5.00929 27.3249 5.59463 27.5658 6.23996C27.8095 6.89571 27.9164 7.59454 27.8799 8.29329C27.8337 9.37446 27.448 10.4134 26.7776 11.2619C26.1073 12.1105 25.1866 12.7253 24.1469 13.0186C23.7975 13.1215 23.4385 13.1885 23.0756 13.2186L22.9385 13.2266C22.8879 13.228 22.8573 13.2333 22.7881 13.2346L18.9114 13.3386L18.8608 15.6933L22.7868 15.7453L23.186 15.7413C23.723 15.7245 24.2568 15.6526 24.779 15.5266C25.8354 15.2761 26.826 14.8019 27.6843 14.136C28.5452 13.4648 29.2556 12.6199 29.7697 11.656C30.2833 10.6899 30.5948 9.62905 30.6852 8.53825C30.7756 7.44745 30.643 6.34964 30.2954 5.31196Z" fill="#FD5F07"/>
</svg>
