<svg width="20" height="21" viewBox="0 0 20 21" fill="none" xmlns="http://www.w3.org/2000/svg">
<path d="M20 18.6794L14.8623 13.444C15.8943 12.0403 16.5124 10.3024 16.5124 8.41304C16.5124 3.76664 12.8159 0 8.25618 0C3.69641 0 0 3.76664 0 8.41304C0 13.0594 3.69641 16.8261 8.25618 16.8261C10.1103 16.8261 11.8158 16.1951 13.1934 15.1447L18.3311 20.38L20 18.6794ZM2.35891 8.41184C2.35891 5.0983 5.00442 2.40252 8.25618 2.40252C11.5079 2.40252 14.1534 5.0983 14.1534 8.41184C14.1534 11.7254 11.5079 14.4212 8.25618 14.4212C5.00442 14.4212 2.35891 11.7254 2.35891 8.41184Z" fill="#4D4D4D"/>
</svg>
