<svg width="21" height="16" viewBox="0 0 21 16" fill="none" xmlns="http://www.w3.org/2000/svg">
<path d="M5.46967 15.5303C5.76256 15.8232 6.23744 15.8232 6.53033 15.5303L11.3033 10.7574C11.5962 10.4645 11.5962 9.98959 11.3033 9.6967C11.0104 9.40381 10.5355 9.40381 10.2426 9.6967L6 13.9393L1.75736 9.6967C1.46447 9.40381 0.989592 9.40381 0.696699 9.6967C0.403805 9.98959 0.403805 10.4645 0.696699 10.7574L5.46967 15.5303ZM5.25 1L5.25 15L6.75 15L6.75 1L5.25 1Z" fill="#4D4D4D"/>
<path d="M14.4697 0.46967C14.7626 0.176777 15.2374 0.176777 15.5303 0.46967L20.3033 5.24264C20.5962 5.53553 20.5962 6.01041 20.3033 6.3033C20.0104 6.59619 19.5355 6.59619 19.2426 6.3033L15 2.06066L10.7574 6.3033C10.4645 6.59619 9.98959 6.59619 9.6967 6.3033C9.40381 6.01041 9.40381 5.53553 9.6967 5.24264L14.4697 0.46967ZM14.25 15L14.25 1L15.75 1L15.75 15L14.25 15Z" fill="#4D4D4D"/>
</svg>
